<?xml version="1.0" standalone="no"?><!DOCTYPE svg PUBLIC "-//W3C//DTD SVG 1.1//EN" "http://www.w3.org/Graphics/SVG/1.1/DTD/svg11.dtd"><svg t="1557038289945" class="icon" style="" viewBox="0 0 1024 1024" version="1.1" xmlns="http://www.w3.org/2000/svg" p-id="3307" xmlns:xlink="http://www.w3.org/1999/xlink" width="200" height="200"><defs><style type="text/css"></style></defs><path d="M975.825571 912.020016h-63.988562v63.988562a47.991422 47.991422 0 0 1-95.982843 0v-63.988562h-63.988562a47.991422 47.991422 0 0 1 0-95.982843h63.988562v-63.988562a47.991422 47.991422 0 0 1 95.982843 0v63.988562h63.988562a47.991422 47.991422 0 0 1 0 95.982843zM767.862745 656.065768a47.991422 47.991422 0 0 1-36.649449-17.276912A415.685696 415.685696 0 0 0 95.982843 992.005719h-2.943474a47.703473 47.703473 0 0 1-90.079898 0H0c0-3.839314 0.367934-7.678627 0.44792-11.517941A42.440414 42.440414 0 0 1 0 976.008578a48.087404 48.087404 0 0 1 1.00782-9.758255A511.908496 511.908496 0 0 1 331.940666 512.731389a287.948529 287.948529 0 1 1 359.727698 0.159972 516.355701 516.355701 0 0 1 110.876181 57.589706l-2.207605 2.399571A47.895439 47.895439 0 0 1 767.862745 656.065768z m-63.988563-367.934232a191.965686 191.965686 0 1 0-191.965686 191.965687 191.965686 191.965686 0 0 0 191.965686-191.965687z" fill="#87d068" p-id="3308"></path></svg>