<?xml version="1.0" standalone="no"?><!DOCTYPE svg PUBLIC "-//W3C//DTD SVG 1.1//EN" "http://www.w3.org/Graphics/SVG/1.1/DTD/svg11.dtd"><svg t="1557134019601" class="icon" style="" viewBox="0 0 1024 1024" version="1.1" xmlns="http://www.w3.org/2000/svg" p-id="10683" xmlns:xlink="http://www.w3.org/1999/xlink" width="200" height="200"><defs><style type="text/css"></style></defs><path d="M717.312 672.256c30.208-16.384 64.512-25.088 100.864-25.088 3.584 0 5.632-4.608 2.56-7.168-38.4-34.304-81.408-61.952-128.512-81.92-0.512 0-1.024-0.512-1.536-0.512 76.8-55.808 126.976-146.944 126.976-249.856 0-169.984-137.728-307.712-307.2-307.712s-307.2 137.728-307.2 307.712c0 102.912 50.176 193.536 127.488 249.856-0.512 0-1.024 0.512-1.536 0.512-55.296 23.552-105.472 57.344-147.968 99.84-43.008 43.008-76.288 92.672-99.84 148.48-23.04 54.272-35.328 112.128-36.352 171.52 0 5.632 4.096 10.24 9.728 10.24h74.24c5.12 0 9.728-4.096 9.728-9.728 2.56-95.744 40.96-185.344 108.544-253.44 70.144-70.144 163.328-109.056 262.656-109.056 70.144 0 137.728 19.456 196.096 55.808 4.096 2.048 8.192 2.048 11.264 0.512z m-206.336-151.04c-56.832 0-110.08-22.016-150.528-62.464-40.448-40.448-62.464-94.208-62.464-151.04 0-56.832 22.016-110.592 62.464-151.04 40.448-40.448 93.696-62.464 150.528-62.464 56.832 0 110.08 22.016 150.528 62.464 40.448 40.448 62.464 94.208 62.464 151.04 0 56.832-22.016 110.592-62.464 151.04-39.936 40.448-93.696 62.464-150.528 62.464z m456.704 295.424h-297.984c-5.632 0-9.728 4.608-9.728 9.728V896c0 5.632 4.608 9.728 9.728 9.728H967.68c5.632 0 9.728-4.608 9.728-9.728v-69.632c0-5.12-4.608-9.728-9.728-9.728z m0 0" p-id="10684" fill="#F44336"></path></svg>