<?xml version="1.0" standalone="no"?><!DOCTYPE svg PUBLIC "-//W3C//DTD SVG 1.1//EN" "http://www.w3.org/Graphics/SVG/1.1/DTD/svg11.dtd"><svg t="1557130404772" class="icon" style="" viewBox="0 0 1024 1024" version="1.1" xmlns="http://www.w3.org/2000/svg" p-id="7346" xmlns:xlink="http://www.w3.org/1999/xlink" width="200" height="200"><defs><style type="text/css"></style></defs><path d="M243.44637079 601.24757281c0-7.89863616 7.89863616-15.79727229 15.79727229-15.79727228h363.33726306c7.89863616 0 15.79727229 7.89863616 15.7972723 15.79727228v63.1890892c0 7.89863616-7.89863616 15.79727229-15.7972723 15.79727231h-363.33726306c-7.89863616 0-15.79727229-7.89863616-15.79727229-15.79727231v-63.1890892z m0-252.75635689c0-7.89863616 7.89863616-15.79727229 15.79727229-15.79727231h497.61407765c7.89863616 0 15.79727229 7.89863616 15.7972723 15.79727231v63.18908919c0 7.89863616-7.89863616 15.79727229-15.7972723 15.79727233h-497.61407765c-7.89863616 0-15.79727229-7.89863616-15.79727229-15.79727233v-63.18908919zM38.08183078 135.22803978c0-39.49318077 39.49318077-78.98636156 78.98636153-78.98636154h789.86361538c47.3918169 0 78.98636156 31.5945446 78.98636153 78.98636154v710.87725378c0 39.49318077-39.49318077 78.98636156-78.98636153 78.98636154H117.06819231c-47.3918169 0-78.98636156-31.5945446-78.98636153-78.98636154v-710.87725378z m868.84997691 710.87725378v-710.87725378H117.06819231v710.87725378h789.86361538z m0-710.87725378z" fill="#6D6D6D" p-id="7347"></path></svg>