<?xml version="1.0" standalone="no"?><!DOCTYPE svg PUBLIC "-//W3C//DTD SVG 1.1//EN" "http://www.w3.org/Graphics/SVG/1.1/DTD/svg11.dtd"><svg t="1557130584682" class="icon" style="" viewBox="0 0 1024 1024" version="1.1" xmlns="http://www.w3.org/2000/svg" p-id="8738" xmlns:xlink="http://www.w3.org/1999/xlink" width="200" height="200"><defs><style type="text/css"></style></defs><path d="M796.444444 170.666667H227.555556c-31.288889 0-56.888889 25.6-56.888889 56.888889v568.888888c0 31.288889 25.6 56.888889 56.888889 56.888889h568.888888c31.288889 0 56.888889-25.6 56.888889-56.888889V227.555556c0-31.288889-25.6-56.888889-56.888889-56.888889zM341.333333 398.222222c31.288889 0 56.888889 25.6 56.888889 56.888889s-25.6 56.888889-56.888889 56.888889-56.888889-25.6-56.888889-56.888889 25.6-56.888889 56.888889-56.888889z m-113.777777 398.222222l170.666666-170.666666 56.888889 56.888889 170.666667-227.555556 170.666666 341.333333H227.555556z" p-id="8739" fill="#707070"></path></svg>