<?xml version="1.0" standalone="no"?><!DOCTYPE svg PUBLIC "-//W3C//DTD SVG 1.1//EN" "http://www.w3.org/Graphics/SVG/1.1/DTD/svg11.dtd"><svg t="1557197156461" class="icon" style="" viewBox="0 0 1321 1024" version="1.1" xmlns="http://www.w3.org/2000/svg" p-id="3249" xmlns:xlink="http://www.w3.org/1999/xlink" width="258.0078125" height="200"><defs><style type="text/css"></style></defs><path d="M1212.184028 402.851852a360.907407 360.907407 0 0 0-194.888889-101.370371 363.074074 363.074074 0 0 0-715.555555 0A362.962963 362.962963 0 0 0 363.184028 1022.203704h303.277778a66.666667 66.666667 0 0 0 66.666667-66.666667V701.685185l53.703704 53.870371A66.666667 66.666667 0 0 0 881.16551 661.351852l-167.592593-167.666667-0.129629-0.129629c-0.740741-0.722222-1.481481-1.481481-2.240741-2.12963l-1.240741-1.092593-1.222222-1.055555c-0.518519-0.444444-1.055556-0.833333-1.592593-1.240741l-0.962963-0.740741-1.759259-1.259259-0.87037-0.611111-1.851852-1.185185a36.637037 36.637037 0 0 0-2.759259-1.62963l-1-0.574074c-0.592593-0.314815-1.166667-0.611111-1.851852-0.888889l-1.185185-0.592592-1.62963-0.740741-1.481482-0.611111-1.481481-0.574074-1.648148-0.62963-1.277778-0.425926-1.851852-0.611111-1.129629-0.333333-2.037037-0.555556-1.055556-0.240741-2.12963-0.462963-1.055555-0.185185-2.148148-0.37037-1.203704-0.148148c-0.666667 0-1.333333-0.185185-2-0.240741l-1.611111-0.111111c-0.555556 0-1.074074-0.111111-1.648148-0.12963h-6.425926c-0.574074 0-1.111111 0-1.648148 0.12963a11.833333 11.833333 0 0 0-1.611111 0.111111c-0.537037 0.111111-1.333333 0.148148-2 0.240741l-1.203704 0.148148c-0.722222 0.092593-1.481481 0.240741-2.148148 0.37037l-1.055556 0.185185-2.148148 0.462963-1.018519 0.240741-2.055555 0.574074-1.111111 0.314815-1.851852 0.611111-1.240741 0.407407-1.666666 0.62963-1.481482 0.574074-1.481481 0.62963-1.592593 0.722222-1.222222 0.592593-1.740741 0.888889-1.037037 0.574074-1.851852 1.055555c-0.314815 0.166667-0.611111 0.388889-0.925926 0.574074-0.611111 0.388889-1.222222 0.759259-1.851852 1.166667-0.314815 0.185185-0.611111 0.425926-0.907407 0.611111-0.574074 0.407407-1.166667 0.814815-1.740741 1.240741l-0.981481 0.759259-1.574074 1.222222-1.25926 1.074074-1.203703 1.055556c-0.777778 0.703704-1.481481 1.481481-2.277778 2.166667l-0.111111 0.092592-0.12963 0.148148c-0.722222 0.722222-1.481481 1.481481-2.129629 2.240741l-1.055556 1.240741c-0.351852 0.388889-0.722222 0.796296-1.055556 1.222222l-0.537037 0.685185-162.592592 162.685185a66.666667 66.666667 0 0 0 94.277778 94.277778l53.814814-53.87037v186.666666H363.184028a229.62963 229.62963 0 1 1 0-459.259259h66.666667v-66.666667a229.62963 229.62963 0 1 1 459.259259 0v66.666667h66.666667a229.62963 229.62963 0 0 1 0 459.259259 66.666667 66.666667 0 1 0 0 133.333334 362.611111 362.611111 0 0 0 256.407407-619.388889z m0 0" p-id="3250" fill="#707070"></path></svg>