<?xml version="1.0" standalone="no"?><!DOCTYPE svg PUBLIC "-//W3C//DTD SVG 1.1//EN" "http://www.w3.org/Graphics/SVG/1.1/DTD/svg11.dtd"><svg t="1557130194362" class="icon" style="" viewBox="0 0 1024 1024" version="1.1" xmlns="http://www.w3.org/2000/svg" p-id="5273" xmlns:xlink="http://www.w3.org/1999/xlink" width="200" height="200"><defs><style type="text/css"></style></defs><path d="M844.8 924.672h-665.6C86.016 924.672 10.24 848.896 10.24 755.712V268.288C10.24 175.104 86.016 99.328 179.2 99.328h665.6C937.984 99.328 1013.76 174.08 1013.76 266.24v126.976c0 18.432-15.36 33.792-33.792 33.792-18.432 0-33.792-15.36-33.792-33.792V266.24c0-54.272-47.104-99.328-102.4-99.328h-665.6c-56.32 0-102.4 46.08-102.4 102.4v486.4c0 56.32 46.08 102.4 102.4 102.4h665.6c56.32 0 102.4-46.08 102.4-102.4V543.744c0-18.432 15.36-33.792 33.792-33.792 18.432 0 33.792 15.36 33.792 33.792v210.944c0 94.208-75.776 169.984-168.96 169.984z" fill="#707070" p-id="5274"></path><path d="M445.44 689.152c-12.288 0-25.6-3.072-36.864-10.24-23.552-13.312-36.864-36.864-36.864-64.512V408.576c0-26.624 14.336-51.2 36.864-64.512 23.552-13.312 51.2-13.312 73.728 0l178.176 103.424c23.552 13.312 36.864 36.864 36.864 64.512s-14.336 51.2-36.864 64.512l-178.176 102.4c-12.288 7.168-24.576 10.24-36.864 10.24z m0-287.744c-1.024 0-3.072 0-4.096 1.024-2.048 1.024-3.072 3.072-3.072 6.144V614.4c0 3.072 2.048 5.12 3.072 6.144 2.048 1.024 4.096 2.048 7.168 0l178.176-103.424c3.072-2.048 3.072-4.096 3.072-6.144 0-2.048-1.024-4.096-3.072-6.144l-178.176-102.4c-1.024 0-2.048-1.024-3.072-1.024z" fill="#707070" p-id="5275"></path></svg>