<?xml version="1.0" standalone="no"?><!DOCTYPE svg PUBLIC "-//W3C//DTD SVG 1.1//EN" "http://www.w3.org/Graphics/SVG/1.1/DTD/svg11.dtd"><svg t="1557130083963" class="icon" style="" viewBox="0 0 1024 1024" version="1.1" xmlns="http://www.w3.org/2000/svg" p-id="2556" xmlns:xlink="http://www.w3.org/1999/xlink" width="200" height="200"><defs><style type="text/css"></style></defs><path d="M481.9 482.4h64.5v32.2h-64.5v-32.2z" p-id="2557" fill="#707070"></path><path d="M769.1 152H254.9C198.1 152 152 198.1 152 254.9v514.3c0 56.8 46.1 102.9 102.9 102.9h514.3c56.8 0 102.9-46.1 102.9-102.9V254.9c-0.1-56.8-46.2-102.9-103-102.9z m-206.5 73.3h-48.4v32.1h48.4v32.1h-48.4v32.1h48.4v32.1h-48.4V386h48.4v144.6c0 8.9-7.2 16.1-16.1 16.1h-64.6c-8.9 0-16.1-7.2-16.1-16.1V418.1h48.4V386h-48.4v-32.1h48.4v-32.1h-48.4v-32.1h48.4v-32.1h-48.4v-32.1h48.4v-32.1h48.4v31.9z" p-id="2558" fill="#707070"></path></svg>