<?xml version="1.0" standalone="no"?><!DOCTYPE svg PUBLIC "-//W3C//DTD SVG 1.1//EN" "http://www.w3.org/Graphics/SVG/1.1/DTD/svg11.dtd"><svg t="1557134993607" class="icon" style="" viewBox="0 0 1024 1024" version="1.1" xmlns="http://www.w3.org/2000/svg" p-id="14356" xmlns:xlink="http://www.w3.org/1999/xlink" width="200" height="200"><defs><style type="text/css"></style></defs><path d="M855.771429 766.464v43.885714c0 43.885714-36.571429 80.457143-80.457143 80.457143H175.542857c-43.885714 0-80.457143-36.571429-80.457143-80.457143V210.578286c0-43.885714 36.571429-80.457143 80.457143-80.457143H343.771429l7.314285 7.314286L438.857143 247.149714c0 7.314286 7.314286 7.314286 14.628571 7.314286h329.142857c43.885714 0 80.457143 36.571429 80.457143 80.457143l-7.314285 431.542857z m51.2-36.571429V334.921143c0-58.514286-36.571429-109.714286-87.771429-124.342857H475.428571L387.657143 100.864 380.342857 93.549714C373.028571 78.921143 365.714286 71.606857 351.085714 71.606857H168.228571C95.085714 71.606857 36.571429 130.121143 36.571429 203.264v607.085714c0 73.142857 58.514286 131.657143 131.657142 131.657143h599.771429c73.142857 0 131.657143-58.514286 131.657143-131.657143l7.314286-80.457143z" fill="#707070" p-id="14357"></path><path d="M877.714286 402.285714L65.828571 409.6v424.228571l95.085715 95.085715h636.342857l80.457143-95.085715z" fill="#707070" p-id="14358"></path></svg>