<?xml version="1.0" standalone="no"?><!DOCTYPE svg PUBLIC "-//W3C//DTD SVG 1.1//EN" "http://www.w3.org/Graphics/SVG/1.1/DTD/svg11.dtd"><svg t="1557904551739" class="icon" style="" viewBox="0 0 1024 1024" version="1.1" xmlns="http://www.w3.org/2000/svg" p-id="2995" xmlns:xlink="http://www.w3.org/1999/xlink" width="200" height="200"><defs><style type="text/css"></style></defs><path d="M512 1024A512 512 0 1 1 512 0a512 512 0 0 1 0 1024z m0-256a64 64 0 1 0 0-128 64 64 0 0 0 0 128z m-5.12-512a57.92 57.92 0 0 0-57.6 63.68l22.4 224.448a35.328 35.328 0 0 0 70.4 0l22.4-224.448A57.92 57.92 0 0 0 506.88 256z" fill="#FAAD14" p-id="2996"></path></svg>