<?xml version="1.0" standalone="no"?><!DOCTYPE svg PUBLIC "-//W3C//DTD SVG 1.1//EN" "http://www.w3.org/Graphics/SVG/1.1/DTD/svg11.dtd"><svg t="1557904584800" class="icon" style="" viewBox="0 0 1024 1024" version="1.1" xmlns="http://www.w3.org/2000/svg" p-id="3966" xmlns:xlink="http://www.w3.org/1999/xlink" width="200" height="200"><defs><style type="text/css"></style></defs><path d="M512 457.408l-125.44-125.44c-36.352-36.352-90.944 18.24-54.528 54.656L457.408 512l-125.44 125.44c-36.352 36.352 18.24 90.944 54.656 54.528L512 566.592l125.44 125.44c36.352 36.352 90.944-18.24 54.528-54.656L566.592 512l125.44-125.44c36.352-36.352-18.24-90.944-54.656-54.528L512 457.408zM512 1024A512 512 0 1 1 512 0a512 512 0 0 1 0 1024z" fill="#FA4049" p-id="3967"></path></svg>