<?xml version="1.0" standalone="no"?><!DOCTYPE svg PUBLIC "-//W3C//DTD SVG 1.1//EN" "http://www.w3.org/Graphics/SVG/1.1/DTD/svg11.dtd"><svg t="1557908098892" class="icon" style="" viewBox="0 0 1024 1024" version="1.1" xmlns="http://www.w3.org/2000/svg" p-id="1985" xmlns:xlink="http://www.w3.org/1999/xlink" width="200" height="200"><defs><style type="text/css"></style></defs><path d="M511.263731 64.132646c-247.085468 0-447.387423 200.430892-447.387423 447.674972 0 247.245104 200.301955 447.674972 447.387423 447.674972s447.387423-200.429869 447.387423-447.674972C958.651155 264.563538 758.349199 64.132646 511.263731 64.132646zM566.040289 709.809181c-19.158339 24.910343-55.812143 67.205635-99.207489 67.393923-30.632671 0.187265-62.426795-19.016099-57.409524-70.02996 4.983501-51.015907 33.799804-122.066103 49.570999-178.949648 12.761652-45.947472 29.160133-84.242659-33.92567-83.001389 0-4.315282 0-8.643867 0-12.95915 42.360783-16.70752 107.673302-10.604522 151.413502-25.946952 1.725294 0 3.480264 0 5.205559 0-21.070898 106.189508-65.595974 202.761983-75.691913 311.208904 2.384303 1.820462 2.069125 1.442862 5.204535 2.574638 32.859385 10.980076 51.737338-64.884776 73.089645-59.612703C605.672938 665.820318 570.900993 703.407378 566.040289 709.809181zM559.675324 351.942631c-29.503964 0-53.429887-23.749914-53.429887-53.071729 0-29.318746 23.925922-53.069683 53.429887-53.069683 29.474288 0 53.399187 23.750937 53.399187 53.069683C613.073488 328.192717 589.148589 351.942631 559.675324 351.942631z" p-id="1986" fill="#8a8a8a"></path></svg>